<?xml version="1.0" standalone="no"?>
<!DOCTYPE svg PUBLIC "-//W3C//DTD SVG 20010904//EN"
 "http://www.w3.org/TR/2001/REC-SVG-20010904/DTD/svg10.dtd">
<svg version="1.0" xmlns="http://www.w3.org/2000/svg"
 width="678.000000pt" height="678.000000pt" viewBox="0 0 678.000000 678.000000"
 preserveAspectRatio="xMidYMid meet">
<metadata>
Created by potrace 1.14, written by Peter Selinger 2001-2017
</metadata>
<g transform="translate(0.000000,678.000000) scale(0.100000,-0.100000)"
fill="#000000" stroke="none">
<path d="M425 6664 c-34 -5 -100 -22 -130 -34 -11 -5 -47 -16 -79 -26 -63 -19
-128 -73 -148 -124 -32 -81 -35 -124 -16 -249 11 -76 27 -139 40 -164 12 -23
21 -46 20 -50 -8 -28 -2 -174 9 -242 10 -65 25 -102 81 -208 37 -71 68 -136
68 -144 0 -17 36 -90 61 -122 11 -13 19 -32 19 -42 0 -9 9 -39 21 -65 30 -71
27 -124 -16 -248 -40 -121 -41 -144 -9 -258 18 -64 18 -70 1 -132 -9 -36 -16
-69 -16 -73 1 -4 -3 -21 -9 -36 -14 -34 -16 -111 -2 -135 45 -83 61 -165 54
-269 -5 -66 -2 -93 21 -173 52 -187 115 -280 223 -333 23 -12 42 -24 42 -28 0
-4 -13 -15 -30 -26 -51 -32 -192 -166 -218 -208 -43 -68 -118 -326 -105 -362
3 -10 13 -26 21 -36 42 -48 55 -181 27 -273 -24 -78 -19 -118 19 -177 47 -75
60 -121 57 -204 -1 -40 -3 -92 -3 -115 -2 -62 19 -149 42 -173 11 -11 30 -50
43 -85 21 -58 23 -78 19 -182 -4 -94 -1 -122 12 -149 9 -17 16 -47 16 -65 0
-50 17 -86 56 -120 52 -44 57 -97 32 -303 -5 -44 5 -76 35 -105 56 -53 118
-106 126 -106 5 0 21 -19 37 -42 16 -24 41 -53 56 -66 27 -23 44 -65 72 -178
21 -82 77 -142 171 -184 39 -17 77 -36 85 -41 8 -5 26 -15 40 -21 34 -16 111
-68 135 -91 11 -10 48 -32 82 -49 59 -29 64 -30 124 -19 65 11 211 79 284 131
22 16 72 47 112 70 39 22 108 75 153 118 143 135 154 144 205 178 69 44 163
138 207 204 21 31 52 71 71 90 18 19 41 48 52 65 24 38 25 40 84 107 28 31 58
72 67 90 9 18 32 50 51 71 19 21 39 49 45 63 6 13 15 24 20 24 4 0 22 24 38
54 17 30 48 74 69 98 102 118 197 311 237 483 15 66 38 154 52 195 13 41 28
100 32 130 4 30 18 102 31 159 20 90 24 100 31 75 5 -16 11 -63 14 -104 3 -41
16 -107 29 -146 13 -39 26 -97 30 -130 29 -259 83 -406 205 -558 39 -50 87
-117 107 -150 19 -34 41 -68 49 -76 16 -17 33 -39 129 -165 38 -49 73 -93 78
-96 4 -3 18 -22 30 -42 12 -19 43 -57 68 -84 25 -26 54 -61 65 -78 10 -16 26
-37 34 -47 32 -36 86 -102 100 -123 8 -13 42 -44 75 -71 116 -93 241 -215 250
-245 4 -10 9 -19 13 -19 4 0 23 -14 42 -31 45 -40 119 -99 155 -124 15 -11 44
-34 64 -50 40 -35 98 -61 153 -70 26 -4 55 2 104 20 37 14 72 30 79 35 28 24
189 100 210 100 13 0 26 4 30 9 3 5 19 12 35 16 43 9 120 54 120 69 0 7 9 21
20 31 22 20 43 62 86 175 29 76 69 125 201 242 54 48 63 83 60 235 -1 87 2
126 10 134 7 7 13 23 13 36 0 17 13 31 50 54 60 37 65 56 55 209 -10 158 19
277 87 362 19 24 22 42 24 140 4 148 31 275 72 332 43 59 47 86 27 161 -12 44
-16 85 -13 132 5 64 12 84 64 179 l22 39 -19 105 c-24 142 -52 232 -83 273
-33 44 -149 146 -200 177 l-38 23 59 56 c69 65 109 128 134 215 10 33 25 79
33 101 20 52 20 101 0 158 l-16 47 31 35 c17 20 31 42 31 49 0 8 9 31 19 53
30 59 63 163 68 215 3 28 -3 82 -15 135 -27 114 -28 136 -13 208 17 75 10 167
-17 225 -27 59 -45 150 -36 186 4 16 15 45 25 66 14 27 18 56 17 120 -2 89 3
103 88 246 35 57 48 119 63 280 6 63 14 98 25 111 19 21 67 240 67 305 0 62
-6 86 -38 146 -27 50 -37 59 -109 95 -130 66 -206 78 -451 72 -114 -2 -224 -9
-243 -15 -19 -6 -57 -16 -85 -22 -196 -43 -484 -171 -690 -305 -79 -51 -160
-109 -175 -125 -3 -3 -25 -21 -50 -40 -25 -19 -52 -40 -60 -47 -8 -7 -35 -30
-60 -51 -119 -103 -187 -168 -210 -200 -14 -20 -32 -43 -40 -52 -30 -33 -214
-281 -245 -332 -8 -14 -50 -75 -152 -224 -24 -35 -111 -181 -146 -244 -105
-192 -148 -272 -208 -390 -39 -74 -74 -142 -79 -150 -12 -19 -43 -92 -66 -155
-24 -67 -38 -81 -70 -66 -14 6 -34 11 -45 11 -31 0 -32 22 -5 81 13 30 32 79
41 109 24 79 35 110 55 155 9 22 27 69 39 105 12 36 26 74 31 85 4 11 22 61
40 110 58 164 81 219 151 359 38 76 69 144 69 152 0 35 -22 5 -70 -93 -28 -60
-60 -124 -71 -144 -10 -21 -31 -68 -45 -105 -14 -38 -34 -87 -45 -110 -10 -22
-19 -48 -19 -57 0 -9 -4 -19 -10 -22 -6 -3 -10 -16 -10 -29 0 -12 -4 -26 -8
-32 -4 -5 -16 -34 -26 -64 -10 -30 -25 -68 -32 -85 -8 -16 -33 -86 -58 -155
-24 -69 -51 -143 -61 -165 l-17 -40 -20 45 c-31 66 -35 79 -54 145 -9 33 -33
105 -54 160 -21 55 -46 123 -56 150 -9 28 -21 55 -24 60 -9 13 -68 167 -85
220 -25 81 -171 385 -185 385 -19 0 -1 -59 40 -135 21 -38 45 -88 53 -110 8
-22 31 -78 50 -125 20 -47 63 -157 97 -245 33 -88 65 -169 70 -180 27 -60 44
-109 65 -186 13 -47 35 -112 49 -144 l26 -58 -22 -16 c-13 -9 -35 -21 -51 -28
-26 -12 -28 -11 -38 15 -18 50 -42 107 -89 207 -26 56 -51 112 -55 125 -4 14
-28 64 -51 112 -24 48 -44 89 -44 93 0 3 -10 22 -23 43 -13 20 -52 91 -87 157
-35 66 -100 176 -145 245 -45 69 -89 137 -99 153 -9 15 -28 40 -41 55 -26 28
-143 183 -160 212 -17 27 -171 215 -257 313 -106 121 -316 302 -459 397 -69
46 -255 155 -291 170 -13 6 -30 14 -38 20 -26 17 -183 86 -255 113 -82 30
-242 71 -358 93 -80 14 -373 27 -432 18z"/>
</g>
</svg>
